<svg xmlns="http://www.w3.org/2000/svg" width="120" height="46" viewBox="0 0 120 46" fill="none">
  <path d="M99.3171 28.118C100.179 28.118 100.878 28.8202 100.878 29.6856C100.878 30.551 100.179 31.2531 99.3171 31.2531C98.4552 31.2531 97.7559 30.551 97.7559 29.6856C97.7559 28.8202 98.4552 28.118 99.3171 28.118Z" fill="#F47421"/>
  <path d="M104.016 28.118C104.878 28.118 105.578 28.8202 105.578 29.6856C105.578 30.551 104.878 31.2531 104.016 31.2531C103.154 31.2531 102.455 30.551 102.455 29.6856C102.455 28.8202 103.154 28.118 104.016 28.118Z" fill="#356DB5"/>
  <path d="M108.716 28.118C109.578 28.118 110.277 28.8202 110.277 29.6856C110.277 30.551 109.578 31.2531 108.716 31.2531C107.854 31.2531 107.154 30.551 107.154 29.6856C107.154 28.8202 107.854 28.118 108.716 28.118Z" fill="#717171"/>
  <path d="M107.24 6.55435C106.544 5.61691 105.645 4.88522 104.594 4.40815C103.542 3.93107 102.405 3.72661 101.252 3.79476H77.4326V9.90932H99.3337C99.741 9.87589 100.132 9.94404 100.488 10.1305C100.844 10.3002 101.166 10.5729 101.387 10.8969C101.624 11.2377 101.777 11.6119 101.845 12.0041C101.913 12.413 101.913 12.8219 101.829 13.2129C101.66 14.1323 101.184 14.9669 100.506 15.5802C99.8268 16.2271 98.9277 16.5678 97.9953 16.5678H77.4326V31.2505H84.1848V22.6824H97.7391C100.352 22.6824 102.862 21.6768 104.745 19.8546C106.696 18.1006 108.019 15.75 108.512 13.1601C108.767 12.0362 108.783 10.8609 108.58 9.73701C108.359 8.58225 107.901 7.5085 107.24 6.55435Z" fill="#ED2224"/>
  <path d="M71.9705 16.4676C71.3429 15.633 70.5117 14.9515 69.5613 14.5258C68.611 14.0835 67.5595 13.8957 66.5246 13.9806H41.2129C41.2129 15.4285 41.6535 16.8585 42.4847 18.0338C43.079 18.8684 43.8922 19.5332 44.8093 19.9756C45.743 20.4179 46.7599 20.6057 47.7781 20.5208H65.1504C65.4219 20.5208 65.6768 20.5722 65.9137 20.7085C66.1507 20.8281 66.3543 21.0146 66.4901 21.2538C66.6591 21.4917 66.7782 21.7643 66.8295 22.0549C66.8807 22.3442 66.8807 22.6336 66.8128 22.9242C66.6771 23.571 66.3543 24.1677 65.8625 24.61C65.404 25.0704 64.7764 25.325 64.1322 25.343H41.2129V31.2531H63.2164C65.6089 31.2531 67.8989 30.3337 69.6292 28.6465C71.4108 27.0288 72.6147 24.8646 73.0732 22.4805C73.3281 21.4582 73.3447 20.3858 73.1577 19.3635C72.9541 18.3244 72.5635 17.3369 71.9705 16.4676ZM50.9339 3.77809C48.6093 3.70994 46.3539 4.56122 44.6569 6.14547C43.5541 7.13306 42.655 8.32511 42.0441 9.68819H73.1577L73.2602 3.79609L50.9339 3.77809Z" fill="#ED2224"/>
  <path d="M30.254 31.2531H37.0395V3.77808H30.254V21.6112L12.7805 3.77808H6.02832V6.50294L30.254 31.2531Z" fill="#ED2224"/>
  <path d="M6.02832 31.2531H12.7972V18.6485L6.02832 12.1752V31.2531Z" fill="#ED2224"/>
  <path d="M4.48535 37.6905H6.23232C6.69083 37.6905 7.04688 37.8101 7.30047 38.0312C7.55535 38.2524 7.69111 38.5765 7.69111 38.9854C7.69111 39.3943 7.55535 39.7184 7.30047 39.9563C7.0456 40.1942 6.68955 40.297 6.23232 40.297H4.99382V42.1192H4.48535V37.6905ZM6.18108 39.8714C6.85989 39.8714 7.18136 39.5821 7.18136 38.9854C7.18136 38.4067 6.84196 38.1161 6.18108 38.1161H4.99382V39.8701H6.18108V39.8714ZM9.60841 42.1706C9.32024 42.1706 9.06537 42.1025 8.84508 41.9829C8.62478 41.8466 8.45444 41.6768 8.33661 41.4376C8.2175 41.1997 8.16755 40.9091 8.16755 40.6031C8.16755 40.279 8.21878 40.0064 8.33661 39.7685C8.45572 39.5306 8.62478 39.3429 8.84508 39.2066C9.06537 39.0703 9.32024 39.0188 9.60841 39.0188C9.89658 39.0188 10.1515 39.087 10.3717 39.2066C10.592 39.3429 10.7624 39.5306 10.8802 39.7685C10.9993 40.0064 11.0672 40.279 11.0672 40.6031C11.0672 40.9271 10.9993 41.1997 10.8802 41.4376C10.7611 41.6755 10.592 41.8633 10.3717 41.9829C10.1515 42.1025 9.89658 42.1706 9.60841 42.1706ZM9.60841 41.745C9.91323 41.745 10.1348 41.6434 10.3039 41.4556C10.4729 41.2512 10.5408 40.9619 10.5408 40.5864C10.5408 40.2122 10.4563 39.9215 10.3039 39.7171C10.1348 39.5126 9.91323 39.411 9.60841 39.411C9.30359 39.411 9.08202 39.5126 8.91296 39.7171C8.7439 39.9215 8.67601 40.2109 8.67601 40.5864C8.67601 40.9606 8.76054 41.2512 8.91296 41.4556C9.06537 41.6421 9.30231 41.745 9.60841 41.745ZM15.9021 39.0535H16.4106L15.2745 42.1192H14.7994L13.9336 39.7518L13.0678 42.1192H12.5926L11.4566 39.0535H11.983L12.8487 41.5058L13.7312 39.0535H14.1718L15.0376 41.5058L15.9021 39.0535ZM19.5497 40.6712H17.3276C17.3442 41.0287 17.4467 41.3013 17.6158 41.4891C17.7848 41.6768 18.0397 41.7617 18.3624 41.7617C18.7185 41.7617 19.0412 41.6421 19.3461 41.4042L19.5151 41.7784C19.3794 41.898 19.2103 41.9996 19.0067 42.0845C18.803 42.1526 18.5827 42.186 18.3624 42.186C17.8873 42.186 17.5146 42.0497 17.2431 41.7604C16.9715 41.4878 16.8358 41.0956 16.8358 40.6018C16.8358 40.2957 16.9036 40.0051 17.0228 39.7672C17.1419 39.5293 17.3109 39.3416 17.5312 39.2053C17.7515 39.069 18.0064 39.0008 18.2779 39.0008C18.6852 39.0008 19.0079 39.1371 19.2282 39.4097C19.4652 39.6656 19.5676 40.0398 19.5676 40.5002L19.5497 40.6712ZM18.26 39.3776C17.9885 39.3776 17.7848 39.4625 17.6158 39.6335C17.4633 39.8032 17.3609 40.0424 17.3276 40.3485H19.0925C19.0925 40.0424 19.0079 39.8032 18.8555 39.6335C18.7351 39.4625 18.5315 39.3776 18.26 39.3776ZM22.0267 39.429L21.6873 39.4638C21.3825 39.4972 21.1443 39.5833 21.0085 39.7531C20.8727 39.9228 20.8049 40.1273 20.8049 40.3832V42.1372H20.2964V39.0715H20.7882V39.6001C20.9573 39.2426 21.2967 39.0381 21.7898 39.0034L21.9768 38.9867L22.0267 39.429ZM22.5006 42.1192V39.0535H23.0091V42.1192H22.5006ZM22.4506 37.7419H23.0616V38.3206H22.4506V37.7419ZM25.4873 38.9854C26.2174 38.9854 26.5901 39.3943 26.5901 40.1942V42.1192H26.0816V40.2289C26.0816 39.9395 26.0304 39.7351 25.9126 39.5988C25.8114 39.4625 25.6244 39.411 25.3862 39.411C25.1146 39.411 24.8777 39.4959 24.724 39.6669C24.5549 39.8367 24.4691 40.0759 24.4691 40.3652V42.1192H23.9607V39.0535H24.4525V39.5473C24.5537 39.3596 24.6894 39.2233 24.8764 39.1217C25.0634 39.0368 25.267 38.9854 25.4873 38.9854ZM30.2377 39.0535V41.898C30.2377 42.3584 30.1186 42.6991 29.8816 42.9203C29.6447 43.1582 29.3053 43.2778 28.8468 43.2778C28.3204 43.2778 27.8632 43.1415 27.5071 42.8689L27.6762 42.4947C27.8798 42.631 28.0668 42.7326 28.2525 42.784C28.4395 42.8354 28.6252 42.8689 28.8468 42.8689C29.135 42.8689 29.3552 42.784 29.5089 42.631C29.6614 42.478 29.7292 42.2568 29.7292 41.9494V41.4209C29.6447 41.6254 29.5089 41.7617 29.3219 41.8813C29.135 41.9829 28.9313 42.0343 28.6777 42.0343C28.4062 42.0343 28.1693 41.9662 27.9656 41.8466C27.762 41.727 27.5929 41.5405 27.4905 41.3181C27.3713 41.0802 27.3214 40.8243 27.3214 40.5169C27.3214 40.2109 27.3726 39.955 27.4905 39.7158C27.6096 39.4779 27.762 39.3069 27.9656 39.1873C28.1693 39.0677 28.4062 38.9995 28.6777 38.9995C28.9147 38.9995 29.1362 39.051 29.3053 39.1526C29.4923 39.2541 29.6281 39.4085 29.7126 39.5949V39.0664L30.2377 39.0535ZM28.7956 41.6087C29.0837 41.6087 29.3219 41.5071 29.491 41.3193C29.6601 41.1149 29.7459 40.859 29.7459 40.5015C29.7459 40.1607 29.6614 39.8881 29.491 39.7004C29.3219 39.4959 29.1004 39.411 28.7956 39.411C28.5074 39.411 28.2692 39.5126 28.1001 39.7004C27.931 39.8881 27.8452 40.1607 27.8452 40.5015C27.8452 40.8423 27.9298 41.1149 28.1001 41.3193C28.2692 41.5058 28.5061 41.6087 28.7956 41.6087ZM33.9353 42.1192V38.1341H32.4086V37.6918H36.005V38.1341H34.4617V42.1192H33.9353ZM37.7865 39.429L37.4471 39.4638C37.1423 39.4972 36.9041 39.5833 36.7683 39.7531C36.6326 39.9228 36.5647 40.1273 36.5647 40.3832V42.1372H36.0562V39.0715H36.548V39.6001C36.7171 39.2426 37.0565 39.0381 37.5483 39.0034L37.7353 38.9867L37.7865 39.429ZM40.8232 39.0535V42.1192H40.3314V41.5907C40.2302 41.7784 40.0945 41.9147 39.9241 42.0163C39.7551 42.1179 39.5514 42.1526 39.3478 42.1526C38.9917 42.1526 38.7202 42.051 38.5332 41.8466C38.3462 41.6421 38.2617 41.3361 38.2617 40.9438V39.0535H38.7702V40.9438C38.7702 41.2165 38.8214 41.4209 38.9392 41.5405C39.0404 41.6601 39.2107 41.7283 39.4477 41.7283C39.7192 41.7283 39.9228 41.6434 40.0919 41.4724C40.261 41.3026 40.3288 41.0634 40.3288 40.7741V39.0535H40.8232ZM42.8084 42.1706C42.2999 42.1706 41.8927 42.0343 41.5866 41.7784L41.7556 41.4042C41.9247 41.5405 42.0784 41.6254 42.2474 41.6935C42.4165 41.745 42.6035 41.7784 42.8238 41.7784C43.0441 41.7784 43.2144 41.7437 43.3322 41.6588C43.4513 41.5739 43.5192 41.4711 43.5192 41.3181C43.5192 41.1985 43.4859 41.0969 43.4001 41.0287C43.3156 40.9606 43.1965 40.9091 43.0095 40.859L42.501 40.7394C42.2462 40.688 42.0425 40.5864 41.9067 40.4333C41.771 40.297 41.7031 40.1093 41.7031 39.9048C41.7031 39.6322 41.8043 39.411 42.0259 39.24C42.2462 39.0703 42.5177 38.9841 42.8737 38.9841C43.094 38.9841 43.281 39.0175 43.4846 39.0857C43.6716 39.1538 43.8407 39.2554 43.9598 39.375L43.7908 39.7492C43.5192 39.5113 43.1965 39.3917 42.875 39.3917C42.6547 39.3917 42.5023 39.4265 42.3832 39.5113C42.2641 39.5962 42.2141 39.6991 42.2141 39.8521C42.2141 39.9717 42.2487 40.0733 42.3166 40.1414C42.3845 40.2096 42.5036 40.261 42.6726 40.3112L43.199 40.4308C43.4872 40.4989 43.6909 40.6005 43.8266 40.7368C43.9624 40.8731 44.0303 41.0429 44.0303 41.2653C44.0303 41.5379 43.9291 41.7424 43.7075 41.9121C43.4693 42.0857 43.1645 42.1706 42.8084 42.1706ZM46.082 41.7617C46.1666 41.7617 46.269 41.7617 46.3536 41.745L46.3369 42.1539C46.2357 42.1706 46.1333 42.1706 46.0321 42.1706C45.6594 42.1706 45.3879 42.0677 45.2009 41.8813C45.0139 41.6935 44.9294 41.4209 44.9294 41.0802V39.4792H44.3184V39.0703H44.9127V38.1328H45.4212V39.0703H46.287V39.4792H45.4212V41.0467C45.4199 41.5058 45.6415 41.7617 46.082 41.7617ZM49.4236 40.6712H47.2014C47.2181 41.0287 47.3205 41.3013 47.4896 41.4891C47.6587 41.6768 47.9135 41.7617 48.2363 41.7617C48.5923 41.7617 48.9151 41.6421 49.2199 41.4042L49.389 41.7784C49.2532 41.898 49.0842 41.9996 48.8805 42.0845C48.6769 42.1526 48.4566 42.186 48.2363 42.186C47.7611 42.186 47.3884 42.0497 47.1169 41.7604C46.8454 41.4878 46.7096 41.0956 46.7096 40.6018C46.7096 40.2957 46.7775 40.0051 46.8966 39.7672C47.0157 39.5293 47.1848 39.3416 47.4051 39.2053C47.6254 39.069 47.8802 39.0008 48.1518 39.0008C48.559 39.0008 48.8818 39.1371 49.1021 39.4097C49.339 39.6656 49.4415 40.0398 49.4415 40.5002L49.4236 40.6712ZM48.1351 39.3776C47.8636 39.3776 47.6599 39.4625 47.4909 39.6335C47.3385 39.8032 47.236 40.0424 47.2027 40.3485H48.9676C48.9676 40.0424 48.8831 39.8032 48.7307 39.6335C48.5923 39.4625 48.3887 39.3776 48.1351 39.3776ZM52.8675 37.6905V42.1192H52.3591V41.5572C52.2745 41.745 52.1388 41.898 51.9518 41.9996C51.7827 42.1012 51.5791 42.1526 51.3242 42.1526C51.0527 42.1526 50.8158 42.0845 50.6121 41.9482C50.4085 41.8118 50.2561 41.6241 50.1369 41.3862C50.0178 41.1483 49.9679 40.8577 49.9679 40.5516C49.9679 40.2456 50.0191 39.955 50.1369 39.7171C50.2561 39.4792 50.4085 39.2914 50.6121 39.1718C50.8158 39.0355 51.0527 38.9841 51.3242 38.9841C51.5612 38.9841 51.7648 39.0355 51.9518 39.1371C52.1388 39.2387 52.2745 39.393 52.3591 39.5795V37.6892H52.8675V37.6905ZM51.4433 41.745C51.7315 41.745 51.9697 41.6434 52.1221 41.4389C52.2912 41.2345 52.3591 40.9451 52.3591 40.5696C52.3591 40.1954 52.2745 39.9048 52.1221 39.7004C51.9697 39.4959 51.7315 39.3943 51.4433 39.3943C51.1552 39.3943 50.9169 39.4959 50.7479 39.7004C50.5788 39.9048 50.5109 40.1774 50.5109 40.5516C50.5109 40.9258 50.5955 41.2165 50.7479 41.4209C50.9169 41.6421 51.1372 41.745 51.4433 41.745ZM58.5516 42.1192L58.0431 41.5572C57.8561 41.7617 57.6704 41.898 57.4322 42.0176C57.2119 42.1192 56.957 42.1706 56.6855 42.1706C56.414 42.1706 56.1591 42.1192 55.9388 42.0343C55.7185 41.9327 55.5661 41.7964 55.447 41.6254C55.3279 41.4556 55.2779 41.2512 55.2779 41.0287C55.2779 40.7561 55.3625 40.5182 55.5149 40.3137C55.6839 40.0926 55.9388 39.8881 56.2949 39.6669C56.1079 39.4457 55.9721 39.258 55.8876 39.105C55.8197 38.952 55.7685 38.7989 55.7685 38.6279C55.7685 38.3386 55.8696 38.0994 56.0566 37.9296C56.2603 37.7599 56.5152 37.6737 56.8366 37.6737C57.1414 37.6737 57.3797 37.7586 57.5487 37.9116C57.7357 38.0647 57.8203 38.2858 57.8203 38.5585C57.8203 38.7796 57.7524 38.9674 57.6333 39.1551C57.4975 39.3249 57.2772 39.5126 56.9378 39.7338L57.9893 40.8744C58.1763 40.5002 58.2775 40.0566 58.2941 39.5293H58.7347C58.7181 40.1942 58.5657 40.7381 58.2941 41.1985L59.142 42.1359H58.5477V42.1192H58.5516ZM56.8712 38.0312C56.6842 38.0312 56.5318 38.0827 56.4306 38.1843C56.3294 38.2871 56.2616 38.4222 56.2616 38.6099C56.2616 38.7295 56.2949 38.8478 56.3461 38.9674C56.3973 39.069 56.5152 39.2233 56.6855 39.4097C56.957 39.24 57.144 39.0857 57.2452 38.9674C57.3464 38.8478 57.3976 38.7115 57.3976 38.5585C57.3976 38.4054 57.3464 38.2691 57.2452 38.1843C57.1594 38.0827 57.0415 38.0312 56.8712 38.0312ZM56.7021 41.745C56.9058 41.745 57.1094 41.7115 57.2785 41.6254C57.4655 41.5405 57.6179 41.4209 57.7537 41.2512L56.5664 39.9395C56.2782 40.1273 56.0746 40.297 55.9388 40.4501C55.8197 40.6031 55.7697 40.7908 55.7697 40.9953C55.7697 41.2332 55.8543 41.4042 56.0246 41.5405C56.1924 41.6768 56.4306 41.745 56.7021 41.745ZM63.1482 42.1706C62.7243 42.1706 62.3683 42.0857 62.0621 41.898C61.7573 41.7103 61.5191 41.4556 61.35 41.1149C61.181 40.7741 61.1131 40.3652 61.1131 39.9061C61.1131 39.4457 61.1976 39.0368 61.35 38.6973C61.5191 38.3566 61.7573 38.1007 62.0621 37.9142C62.367 37.7265 62.741 37.6416 63.1482 37.6416C63.4531 37.6416 63.7246 37.693 63.9795 37.7779C64.2343 37.8628 64.4546 38.0158 64.6416 38.1868L64.4546 38.579C64.2343 38.3913 64.0307 38.273 63.827 38.1868C63.6234 38.102 63.4031 38.0672 63.1482 38.0672C62.6564 38.0672 62.2824 38.2203 62.0288 38.5443C61.774 38.8504 61.6382 39.3107 61.6382 39.8894C61.6382 40.4681 61.774 40.9284 62.0288 41.2345C62.3004 41.5405 62.6731 41.7115 63.1482 41.7115C63.4031 41.7115 63.6234 41.6781 63.827 41.592C64.0307 41.5071 64.2343 41.3875 64.4546 41.1997L64.6416 41.592C64.4546 41.7797 64.2343 41.916 63.9795 42.0176C63.7246 42.1192 63.4543 42.1706 63.1482 42.1706ZM66.6255 42.1706C66.3373 42.1706 66.0825 42.1025 65.8622 41.9829C65.6419 41.8466 65.4715 41.6768 65.3537 41.4376C65.2346 41.1997 65.1847 40.9091 65.1847 40.6031C65.1847 40.279 65.2359 40.0064 65.3537 39.7685C65.4728 39.5306 65.6419 39.3429 65.8622 39.2066C66.0825 39.0703 66.3373 39.0188 66.6255 39.0188C66.9137 39.0188 67.1686 39.087 67.3888 39.2066C67.6091 39.3429 67.7795 39.5306 67.8973 39.7685C68.0164 40.0064 68.0843 40.279 68.0843 40.6031C68.0843 40.9271 68.0164 41.1997 67.8973 41.4376C67.7782 41.6755 67.6091 41.8633 67.3888 41.9829C67.1686 42.1025 66.915 42.1706 66.6255 42.1706ZM66.6255 41.745C66.9303 41.745 67.1519 41.6434 67.321 41.4556C67.49 41.2512 67.5579 40.9619 67.5579 40.5864C67.5579 40.2122 67.4734 39.9215 67.321 39.7171C67.1519 39.5126 66.9303 39.411 66.6255 39.411C66.3207 39.411 66.0991 39.5126 65.9301 39.7171C65.761 39.9215 65.6931 40.2109 65.6931 40.5864C65.6931 40.9606 65.7776 41.2512 65.9301 41.4556C66.1004 41.6421 66.3207 41.745 66.6255 41.745ZM70.3589 38.9854C71.089 38.9854 71.4617 39.3943 71.4617 40.1942V42.1192H70.9532V40.2289C70.9532 39.9395 70.902 39.7351 70.7841 39.5988C70.683 39.4625 70.496 39.411 70.2578 39.411C69.9862 39.411 69.7493 39.4959 69.5956 39.6669C69.4266 39.8367 69.3407 40.0759 69.3407 40.3652V42.1192H68.8323V39.0535H69.3241V39.5473C69.4253 39.3596 69.561 39.2233 69.748 39.1217C69.9337 39.0368 70.1374 38.9854 70.3589 38.9854ZM73.9207 38.9854C74.6508 38.9854 75.0235 39.3943 75.0235 40.1942V42.1192H74.515V40.2289C74.515 39.9395 74.4638 39.7351 74.346 39.5988C74.2435 39.4625 74.0578 39.411 73.8196 39.411C73.548 39.411 73.3111 39.4959 73.1574 39.6669C72.9883 39.8367 72.9025 40.0759 72.9025 40.3652V42.1192H72.3941V39.0535H72.8859V39.5473C72.9871 39.3596 73.1228 39.2233 73.3098 39.1217C73.4802 39.0368 73.6838 38.9854 73.9207 38.9854ZM78.5008 40.6712H76.2786C76.2953 41.0287 76.3978 41.3013 76.5668 41.4891C76.7359 41.6768 76.9907 41.7617 77.3135 41.7617C77.6695 41.7617 77.9923 41.6421 78.2971 41.4042L78.4662 41.7784C78.3304 41.898 78.1614 41.9996 77.9577 42.0845C77.7541 42.1526 77.5338 42.186 77.3135 42.186C76.8383 42.186 76.4656 42.0497 76.1941 41.7604C75.9226 41.4878 75.7868 41.0956 75.7868 40.6018C75.7868 40.2957 75.8547 40.0051 75.9738 39.7672C76.0929 39.5293 76.262 39.3416 76.4823 39.2053C76.7026 39.069 76.9574 39.0008 77.229 39.0008C77.6362 39.0008 77.959 39.1371 78.1793 39.4097C78.4162 39.6656 78.5187 40.0398 78.5187 40.5002L78.5008 40.6712ZM77.2123 39.3776C76.9408 39.3776 76.7372 39.4625 76.5681 39.6335C76.4157 39.8032 76.3132 40.0424 76.2799 40.3485H78.0448C78.0448 40.0424 77.9603 39.8032 77.8079 39.6335C77.6695 39.4625 77.4659 39.3776 77.2123 39.3776ZM80.5372 42.1706C80.2324 42.1706 79.9775 42.1025 79.7572 41.9829C79.5369 41.8466 79.3666 41.6768 79.2487 41.4376C79.1309 41.1985 79.0797 40.9271 79.0797 40.6031C79.0797 40.279 79.1476 40.0064 79.2667 39.7685C79.3858 39.5306 79.5715 39.3429 79.7931 39.2066C80.0134 39.0703 80.2849 39.0021 80.573 39.0021C80.7767 39.0021 80.9803 39.0355 81.1673 39.1217C81.371 39.1899 81.5234 39.2914 81.6425 39.411L81.4734 39.7852C81.1852 39.5473 80.8971 39.4277 80.591 39.4277C80.2861 39.4277 80.0313 39.5293 79.8609 39.7338C79.6919 39.9383 79.6061 40.2276 79.6061 40.6031C79.6061 40.9773 79.6906 41.2499 79.8609 41.4544C80.03 41.6588 80.2849 41.7604 80.591 41.7604C80.8791 41.7604 81.1852 41.6408 81.4734 41.4029L81.6425 41.7771C81.5067 41.8967 81.3543 41.9983 81.1507 42.0665C80.9445 42.1192 80.7408 42.1706 80.5372 42.1706ZM83.5739 41.7617C83.6584 41.7617 83.7609 41.7617 83.8454 41.745L83.8288 42.1539C83.7276 42.1706 83.6251 42.1706 83.5239 42.1706C83.1512 42.1706 82.8797 42.0677 82.6927 41.8813C82.5057 41.6935 82.4212 41.4209 82.4212 41.0802V39.4792H81.8103V39.0703H82.4045V38.1328H82.913V39.0703H83.7788V39.4792H82.913V41.0467C82.9117 41.5058 83.1333 41.7617 83.5739 41.7617ZM86.9154 40.6712H84.6933C84.7099 41.0287 84.8124 41.3013 84.9814 41.4891C85.1505 41.6768 85.4054 41.7617 85.7281 41.7617C86.0842 41.7617 86.4069 41.6421 86.7118 41.4042L86.8808 41.7784C86.745 41.898 86.576 41.9996 86.3723 42.0845C86.1687 42.1526 85.9484 42.186 85.7281 42.186C85.253 42.186 84.8802 42.0497 84.6087 41.7604C84.3372 41.4878 84.2014 41.0956 84.2014 40.6018C84.2014 40.2957 84.2693 40.0051 84.3884 39.7672C84.5076 39.5293 84.6766 39.3416 84.8969 39.2053C85.1172 39.069 85.3721 39.0008 85.6436 39.0008C86.0509 39.0008 86.3736 39.1371 86.5939 39.4097C86.8309 39.6656 86.9333 40.0398 86.9333 40.5002V40.6699H86.9154V40.6712ZM85.6269 39.3776C85.3554 39.3776 85.1518 39.4625 84.9827 39.6335C84.8303 39.8032 84.7278 40.0424 84.6945 40.3485H86.4594C86.4594 40.0424 86.3749 39.8032 86.2225 39.6335C86.1021 39.4625 85.8985 39.3776 85.6269 39.3776ZM90.3594 37.6905V42.1192H89.8509V41.5572C89.7664 41.745 89.6306 41.898 89.4436 41.9996C89.2746 42.1012 89.0709 42.1526 88.816 42.1526C88.5445 42.1526 88.3076 42.0845 88.1039 41.9482C87.9003 41.8118 87.7479 41.6241 87.6288 41.3862C87.5097 41.1483 87.4597 40.8577 87.4597 40.5516C87.4597 40.2456 87.5109 39.955 87.6288 39.7171C87.7479 39.4792 87.9003 39.2914 88.1039 39.1718C88.3076 39.0355 88.5445 38.9841 88.816 38.9841C89.053 38.9841 89.2566 39.0355 89.4436 39.1371C89.6306 39.2387 89.7664 39.393 89.8509 39.5795V37.6892H90.3594V37.6905ZM88.9352 41.745C89.2233 41.745 89.4615 41.6434 89.614 41.4389C89.783 41.2345 89.8509 40.9451 89.8509 40.5696C89.8509 40.1954 89.7664 39.9048 89.614 39.7004C89.4615 39.4959 89.2233 39.3943 88.9352 39.3943C88.647 39.3943 88.4088 39.4959 88.2397 39.7004C88.0706 39.9048 88.0028 40.1774 88.0028 40.5516C88.0028 40.9258 88.0873 41.2165 88.2397 41.4209C88.4088 41.6421 88.6457 41.745 88.9352 41.745ZM98.6216 37.6905H99.1134L97.5701 42.1192H97.1295L95.8743 38.4916L94.6192 42.1192H94.1953L92.6519 37.6905H93.1783L94.4335 41.3862L95.7232 37.6905H96.1138L97.369 41.3862L98.6216 37.6905ZM100.725 42.1706C100.436 42.1706 100.182 42.1025 99.9613 41.9829C99.741 41.8466 99.5706 41.6768 99.4528 41.4376C99.3337 41.1997 99.2837 40.9091 99.2837 40.6031C99.2837 40.279 99.335 40.0064 99.4528 39.7685C99.5719 39.5306 99.741 39.3429 99.9613 39.2066C100.182 39.0703 100.436 39.0188 100.725 39.0188C101.013 39.0188 101.268 39.087 101.488 39.2066C101.708 39.3429 101.879 39.5306 101.996 39.7685C102.114 40.0064 102.183 40.279 102.183 40.6031C102.183 40.9271 102.116 41.1997 101.996 41.4376C101.877 41.6755 101.708 41.8633 101.488 41.9829C101.268 42.1025 101.013 42.1706 100.725 42.1706ZM100.725 41.745C101.029 41.745 101.251 41.6434 101.42 41.4556C101.589 41.2512 101.657 40.9619 101.657 40.5864C101.657 40.2122 101.572 39.9215 101.42 39.7171C101.251 39.5126 101.029 39.411 100.725 39.411C100.436 39.411 100.198 39.5126 100.029 39.7171C99.8601 39.9215 99.7922 40.2109 99.7922 40.5864C99.7922 40.9606 99.8767 41.2512 100.029 41.4556C100.182 41.6421 100.42 41.745 100.725 41.745ZM104.644 39.429L104.304 39.4638C104 39.4972 103.761 39.5833 103.626 39.7531C103.49 39.9228 103.422 40.1273 103.422 40.3832V42.1372H102.913V39.0715H103.405V39.6001C103.574 39.2426 103.914 39.0381 104.407 39.0034L104.594 38.9867L104.644 39.429ZM105.136 42.1192V37.6905H105.644V42.1192H105.136ZM109.292 37.6905V42.1192H108.783V41.5572C108.699 41.745 108.563 41.898 108.376 41.9996C108.207 42.1012 108.003 42.1526 107.748 42.1526C107.477 42.1526 107.24 42.0845 107.036 41.9482C106.833 41.8118 106.68 41.6241 106.561 41.3862C106.442 41.1483 106.392 40.8577 106.392 40.5516C106.392 40.2456 106.443 39.955 106.561 39.7171C106.68 39.4792 106.833 39.2914 107.036 39.1718C107.24 39.0355 107.477 38.9841 107.748 38.9841C107.985 38.9841 108.189 39.0355 108.376 39.1371C108.563 39.2387 108.699 39.393 108.783 39.5795V37.6892H109.292V37.6905ZM107.849 41.745C108.138 41.745 108.376 41.6434 108.528 41.4389C108.697 41.2345 108.765 40.9451 108.765 40.5696C108.765 40.1954 108.681 39.9048 108.528 39.7004C108.376 39.4959 108.138 39.3943 107.849 39.3943C107.561 39.3943 107.323 39.4959 107.154 39.7004C106.985 39.9048 106.917 40.1774 106.917 40.5516C106.917 40.9258 107.002 41.2165 107.154 41.4209C107.324 41.6421 107.561 41.745 107.849 41.745Z" fill="#010101"/>
  <path d="M112.427 9.28954C112.038 9.28954 111.675 9.2201 111.341 9.07993C111.007 8.93977 110.715 8.74559 110.464 8.49741C110.213 8.24794 110.019 7.95604 109.884 7.62041C109.747 7.28479 109.679 6.92216 109.679 6.52995C109.679 6.13903 109.747 5.7764 109.884 5.44335C110.021 5.11029 110.214 4.81839 110.464 4.56635C110.714 4.31431 111.007 4.12013 111.341 3.98382C111.675 3.84623 112.037 3.77808 112.427 3.77808C112.818 3.77808 113.178 3.84623 113.509 3.98382C113.841 4.12142 114.132 4.31559 114.383 4.56635C114.634 4.8171 114.827 5.11029 114.963 5.44335C115.1 5.7764 115.168 6.13774 115.168 6.52995C115.168 6.92087 115.1 7.28479 114.963 7.62041C114.826 7.95604 114.633 8.24794 114.383 8.49741C114.132 8.74688 113.841 8.94105 113.509 9.07993C113.176 9.21881 112.817 9.28954 112.427 9.28954ZM112.427 8.92305C112.767 8.92305 113.079 8.8639 113.365 8.74431C113.65 8.62472 113.9 8.45626 114.113 8.23765C114.325 8.01905 114.491 7.76572 114.61 7.4751C114.729 7.18577 114.788 6.87072 114.788 6.52995C114.788 6.0773 114.685 5.67095 114.48 5.3109C114.275 4.94955 113.995 4.66536 113.638 4.45704C113.28 4.24872 112.877 4.14456 112.426 4.14456C112.087 4.14456 111.774 4.20372 111.488 4.32331C111.203 4.4429 110.952 4.61007 110.737 4.8261C110.521 5.04214 110.355 5.29546 110.236 5.5848C110.117 5.87413 110.058 6.18918 110.058 6.52995C110.058 6.87072 110.117 7.18577 110.236 7.4751C110.355 7.76443 110.521 8.01905 110.737 8.23765C110.952 8.45626 111.203 8.62472 111.488 8.74431C111.775 8.8639 112.088 8.92305 112.427 8.92305ZM111.295 8.13864V4.92126H112.639C112.988 4.92126 113.256 5.00613 113.443 5.17716C113.63 5.3469 113.723 5.57451 113.723 5.85998C113.723 6.09402 113.664 6.28305 113.545 6.42836C113.426 6.57367 113.258 6.6714 113.041 6.72155C113.132 6.75241 113.208 6.80642 113.273 6.88486C113.335 6.9633 113.388 7.07132 113.429 7.20892L113.763 8.13864H113.141L112.806 7.16262C112.76 7.0456 112.696 6.96716 112.613 6.92601C112.53 6.88486 112.427 6.86557 112.306 6.86557H111.903V8.13864H111.295ZM111.896 6.39236H112.557C112.946 6.39236 113.141 6.22519 113.141 5.88956C113.141 5.55393 112.946 5.38676 112.557 5.38676H111.896V6.39236Z" fill="#010101"/>
</svg>